<?xml version="1.0" encoding="UTF-8"?>
<svg xmlns="http://www.w3.org/2000/svg" xmlns:xlink="http://www.w3.org/1999/xlink" width="71" height="69" viewBox="0 0 122 118" version="1.1">
  <title>Group 7</title>
  <g id="Tex-Tech" stroke="none" stroke-width="1" fill="none" fill-rule="evenodd">
    <g id="New-CTA-Desktop-Copy-4" transform="translate(-531.000000, -939.000000)" fill="#000000" fill-rule="nonzero">
      <g id="noun-graphs-918369" transform="translate(531.000000, 939.000000)">
        <path d="M1.79675994,106.684932 L24.0765832,106.684932 C25.1545194,106.684932 25.8733432,105.958321 25.8733432,104.86982 L25.8733432,65.4980002 L32.1620029,60.7807905 L32.1620029,104.869971 C32.1620029,105.958472 32.8808267,106.684932 33.9587629,106.684932 L56.2385862,106.684932 C57.3165223,106.684932 58.0353461,105.958472 58.0353461,104.869971 L58.0353461,65.3167144 L64.3240059,72.2116212 L64.3240059,104.870274 C64.3240059,105.958775 65.0428297,106.684932 66.1207658,106.684932 L88.4005891,106.684932 C89.4785253,106.684932 90.197349,105.958775 90.197349,104.870274 L90.197349,77.473293 L96.4860088,72.3927558 L96.4860088,104.869971 C96.4860088,105.958472 97.2048326,106.684932 98.2827688,106.684932 L120.20324,106.684932 C121.281176,106.684932 122,105.959063 122,104.870562 L122,4.71736092 C122,3.62886012 121.281176,2.90299133 120.20324,2.90299133 L97.9234168,2.90299133 C96.8454806,2.90299133 96.1266568,3.62886012 96.1266568,4.71736092 L96.1266568,67.6759855 L89.8379971,72.7565227 L89.8379971,19.4140569 C89.8379971,18.3255561 89.1191733,17.5996874 88.0412371,17.5996874 L65.9410898,17.5996874 C64.8631537,17.5996874 64.1443299,18.3255561 64.1443299,19.4140569 L64.1443299,66.95054 L57.8556701,60.0556332 L57.8556701,1.81436958 C57.8556701,0.725868791 57.1368463,0 56.0589102,0 L33.7790869,0 C32.7011507,0 31.982327,0.725868791 31.982327,1.81436958 L31.982327,56.2454571 L25.6936672,60.9626668 L25.6936672,51.7095331 C25.6936672,50.6210323 24.9748434,49.8951635 23.8969072,49.8951635 L1.79675994,49.8951635 C0.71882376,49.8951635 0,50.6210323 0,51.7095331 L0,104.870562 C0,105.777747 0.71882376,106.684932 1.79675994,106.684932 L1.79675994,106.684932 Z M99.7201767,6.53098873 L118.40648,6.53098873 L118.40648,103.056041 L99.7201767,103.056041 L99.7201767,69.4902038 L111.040064,60.2370702 L111.040064,63.1399103 C111.040064,64.2284111 111.758888,64.9542799 112.836824,64.9542799 C113.91476,64.9542799 114.633584,64.2284111 114.633584,63.1399103 L114.633584,56.4270452 C114.633584,55.3385445 113.91476,54.6126757 112.836824,54.6126757 L105.110457,54.6126757 C104.03252,54.6126757 103.313697,55.3385445 103.313697,56.4270452 C103.313697,57.515546 104.03252,58.2414148 105.110457,58.2414148 L107.805596,58.2414148 L99.5406505,64.9542799 L99.5406505,6.53098873 L99.7201767,6.53098873 Z M86.4240034,103.055451 L67.7377,103.055451 L67.7377,76.2027807 L76.7214998,86.0005277 C77.0806122,86.3631597 77.6198797,86.5450805 77.9789921,86.5450805 C78.3381046,86.5450805 78.6978159,86.3637645 79.0569283,86.1824485 L86.4234944,80.1947264 L86.4240034,103.055451 Z M67.7375503,21.2273824 L86.4240034,21.2273824 L86.4240034,75.6584699 L78.1590574,82.3713349 L67.7375503,70.7592184 L67.7375503,21.2273824 Z M54.2621502,103.055451 L35.5756971,103.055451 L35.5756971,57.8776479 L44.7390231,50.8014554 L54.2621502,61.3251013 L54.2621502,103.055451 Z M35.5755474,3.62799739 L54.2620005,3.62799739 L54.2620005,56.0632784 L46.1765808,47.1727162 C45.6373132,46.4468474 44.5593471,46.4468474 43.8404934,46.9914002 L35.5755474,53.3416937 L35.5755474,3.62799739 Z M3.59331026,53.5231609 L22.2796735,53.5231609 L22.2796735,63.8647652 L11.8581664,72.0294283 C11.1393427,72.5739811 10.9597865,73.8437979 11.499054,74.5696969 C12.0383216,75.2955959 13.2958139,75.4768817 14.0146676,74.9323289 L22.2796735,68.5820354 L22.2796735,103.236494 L3.59331026,103.237085 L3.59331026,53.5231609 Z" id="Shape"></path>
        <path d="M122,116.383562 C122,115.413806 121.281176,114.767123 120.20324,114.767123 L1.79675994,114.767123 C0.71882376,114.767123 0,115.413806 0,116.383562 C0,117.353317 0.71882376,118 1.79675994,118 L120.20324,118 C121.281176,118 122,117.191781 122,116.383562 Z" id="Path"></path>
      </g>
    </g>
  </g>
</svg>
