<?xml version="1.0" encoding="UTF-8"?>
<svg xmlns="http://www.w3.org/2000/svg" xmlns:xlink="http://www.w3.org/1999/xlink" width="65" height="78" viewBox="0 0 114 133" version="1.1">
  <title>Group 5</title>
  <g id="Tex-Tech" stroke="none" stroke-width="1" fill="none" fill-rule="evenodd">
    <g id="New-CTA-Desktop-Copy-4" transform="translate(-806.000000, -930.000000)">
      <g id="Group-5" transform="translate(806.000000, 930.000000)">
        <g id="Group" transform="translate(0.194612, 0.000000)">
          <path d="M34.7556164,14.493026 C38.5723282,12.4246998 42.7179143,10.89004 47.0950397,9.99224193 L46.8546517,9.49100819 C45.4801636,6.32439036 41.86992,4.76909157 38.6224705,5.94699084 C35.3809201,7.12783855 33.6111928,10.6408973 34.5948662,13.94904 L34.7556164,14.493026 Z" id="Path"></path>
          <path d="M22.50173,24.2184347 C25.4158809,20.944199 28.7960599,18.0945378 32.5434574,15.7800173 L32.1482183,15.362814 C29.7708847,12.8566453 25.8420902,12.6340386 23.1992975,14.8483123 C20.5565048,17.0655345 20.0963757,20.9736834 22.1522089,23.7481595 L22.50173,24.2184347 Z" id="Path"></path>
          <path d="M77.724594,13.9505142 C78.7067927,10.6408973 76.9370654,7.12636434 73.6969898,5.94699084 C70.4569141,4.76761735 66.8392967,6.32439036 65.4633337,9.49100819 L65.2435926,9.99666458 C69.6133441,10.8944627 73.7530311,12.4276482 77.5638438,14.493026 L77.724594,13.9505142 Z" id="Path"></path>
          <path d="M62.7379538,9.5617706 L62.6833872,9.00009398 C62.4739695,5.55484916 59.6084861,2.85703229 56.1589927,2.85703229 C52.7094994,2.85703229 49.8425412,5.55484916 49.6345983,9.00156819 L49.6006785,9.55882217 C51.7420485,9.24481398 53.9306112,9.07675325 56.1589927,9.07675325 C58.3932734,9.07675325 60.58921,9.24628819 62.7379538,9.5617706 Z" id="Path"></path>
          <path d="M13.8020458,37.1959658 L14.2887208,37.5188193 C15.928668,33.3969089 18.1599992,29.5757388 20.8780053,26.1540814 L20.3382384,25.9093614 C17.2471148,24.3643822 13.4805454,25.4995292 11.7535865,28.4848183 C10.031052,31.4656848 10.9306633,35.2912776 13.8020458,37.1959658 Z" id="Path"></path>
          <path d="M10.5781927,52.7003046 L11.1386063,52.8344583 C11.2654367,48.3307258 12.0529654,43.9921055 13.4141806,39.909999 L12.8345949,39.8539788 C9.42049609,39.4706824 6.26153295,41.8205841 5.66277523,45.2112829 C5.06401751,48.6049301 7.22308476,51.8953822 10.5781927,52.7003046 Z" id="Path"></path>
          <path d="M12.8345949,68.3697557 L13.411231,68.3048901 C12.0500158,64.218361 11.2624872,59.8753181 11.1371315,55.3671629 L10.5781927,55.5249041 C7.22308476,56.3283523 5.06401751,59.6188043 5.66277523,63.0124516 C6.26153295,66.4031504 9.41902132,68.7589489 12.8345949,68.3697557 Z" id="Path"></path>
          <path d="M98.5144649,71.0277687 L98.0292647,70.7049152 C96.3893174,74.8268255 94.1579863,78.6494699 91.4385054,82.0711272 L91.9782723,82.3158472 C95.0649715,83.8578781 98.8389149,82.7256795 100.562924,79.7403904 C102.283984,76.7595239 101.385847,72.9324569 98.5144649,71.0277687 Z" id="Path"></path>
          <path d="M101.738318,55.5249041 L101.177904,55.3907504 C101.051074,59.9003798 100.260596,64.2434227 98.896431,68.3299518 L99.4819158,68.3697557 C102.89159,68.7604231 106.054978,66.4031504 106.653735,63.0124516 C107.252493,59.6188043 105.093426,56.3283523 101.738318,55.5249041 Z" id="Path"></path>
          <path d="M99.4833906,39.855453 L98.9067544,39.9203186 C100.266495,44.0009508 101.054024,48.3380969 101.179379,52.8403552 L101.739793,52.7003046 C105.094901,51.8953822 107.253968,48.6064043 106.656685,45.2127571 C106.056453,41.8220583 102.89159,39.4706824 99.4833906,39.855453 Z" id="Path"></path>
          <path d="M98.5159397,37.1959658 C101.385847,35.2912776 102.285459,31.4642106 100.562924,28.4833441 C98.8374401,25.4965807 95.0634968,24.3688048 91.9782723,25.9078872 L91.4517784,26.1702978 C94.1697845,29.5949036 96.3996408,33.4190222 98.0381133,37.543881 L98.5159397,37.1959658 Z" id="Path"></path>
          <path d="M89.8147807,24.2169605 L90.1628271,23.7466853 C92.220135,20.9751576 91.7614807,17.0655345 89.1172132,14.8468381 C86.4758953,12.6325643 82.5441512,12.8566453 80.1682924,15.3598655 L79.7730533,15.7785431 C83.5204508,18.0945378 86.9006298,20.9427248 89.8147807,24.2169605 Z" id="Path"></path>
          <path d="M37.6446962,104.961293 C34.0831201,103.665456 31.7574035,100.407437 31.4904697,96.8221412 C28.250394,98.3862853 24.2655582,98.0015147 21.3632055,95.56316 C21.2643957,95.4806039 21.184758,95.3833055 21.0903725,95.297801 L5.46663046,110.915654 L17.9682787,114.825278 L21.8793759,127.322214 L44.3799831,104.828613 C42.2931797,105.674813 39.9055227,105.78538 37.6446962,104.961293 Z" id="Path"></path>
          <path d="M79.7553561,92.4569851 L80.1697672,92.8623947 C82.5485756,95.3685634 86.4758953,95.5955928 89.118688,93.3754222 C91.7614807,91.1582 92.2216098,87.2500511 90.1643018,84.4770492 L89.8162555,84.006774 C86.8962055,87.2869065 83.5086526,90.1395161 79.7553561,92.4569851 Z" id="Path"></path>
          <path d="M98.3522399,54.1111301 C98.3522399,30.8538848 79.425007,11.9337855 56.1589927,11.9337855 C32.8929785,11.9337855 13.9642708,30.8538848 13.9642708,54.1111301 C13.9642708,77.3683754 32.8929785,96.2914231 56.1589927,96.2914231 C79.425007,96.2914231 98.3522399,77.3698496 98.3522399,54.1111301 Z M56.1589927,92.5557576 C34.953236,92.5557576 17.7013448,75.3088945 17.7013448,54.1126043 C17.7013448,32.9163142 34.953236,15.6679769 56.1589927,15.6679769 C77.3647495,15.6679769 94.6166406,32.91484 94.6166406,54.1111301 C94.6166406,75.3074202 77.3647495,92.5557576 56.1589927,92.5557576 Z" id="Shape"></path>
          <path d="M91.227613,95.2992752 C91.1332275,95.3847798 91.0535898,95.4820781 90.95478,95.5646342 C88.0539021,98.0000405 84.0675915,98.3848111 80.8275158,96.8250896 C80.5591072,100.410385 78.2348654,103.66693 74.6732893,104.962767 C72.410988,105.788328 70.0218562,105.676288 67.933578,104.827139 L90.4386096,127.323688 L94.3497068,114.826752 L106.851355,110.917129 L91.227613,95.2992752 Z" id="Path"></path>
          <path d="M20.8632575,82.0519624 C18.1452514,78.6288308 15.9168699,74.8047123 14.2783974,70.6798535 L13.8020458,71.0262945 C10.9321381,72.9324569 10.0325268,76.7580496 11.7535865,79.7389161 C13.4790706,82.7256795 17.2530139,83.8549296 20.3382384,82.314373 L20.8632575,82.0519624 Z" id="Path"></path>
          <path d="M73.6969898,102.278218 C76.9370654,101.09737 78.7067927,97.5828371 77.724594,94.2732202 L77.5638438,93.7321827 C73.747132,95.8005089 69.6000712,97.3366429 65.2229458,98.2329667 L65.461859,98.7327263 C66.8378219,101.899344 70.4569141,103.454643 73.6969898,102.278218 Z" id="Path"></path>
          <path d="M49.5800317,98.6634381 L49.6345983,99.2236405 C49.8425412,102.668885 52.7094994,105.368176 56.1589927,105.368176 C59.6084861,105.368176 62.4739695,102.67036 62.6819124,99.2251147 L62.7158322,98.6663865 C60.5744622,98.9789205 58.3858995,99.1484554 56.1589927,99.1484554 C53.9247121,99.1484554 51.7287755,98.9789205 49.5800317,98.6634381 Z" id="Path"></path>
          <path d="M34.5933914,94.2732202 C33.609718,97.5798887 35.3794453,101.09737 38.6209957,102.276744 C41.8625461,103.456117 45.4801636,101.899344 46.853177,98.7327263 L47.0729181,98.2270699 C42.6957927,97.3277976 38.5502066,95.7916636 34.7334948,93.7203889 L34.5933914,94.2732202 Z" id="Path"></path>
          <path d="M56.1589927,18.5250092 C36.529768,18.5250092 20.5594543,34.4893036 20.5594543,54.1111301 C20.5594543,73.7329566 36.529768,89.6972511 56.1589927,89.6972511 C75.7882175,89.6972511 91.7585311,73.7329566 91.7585311,54.1111301 C91.7585311,34.4893036 75.7882175,18.5250092 56.1589927,18.5250092 Z" id="Path"></path>
          <path d="M32.1482183,92.8609205 L32.5434574,92.4451913 C28.7960599,90.1306708 25.4158809,87.2810096 22.50173,84.006774 L22.1536836,84.4785234 C20.0978505,87.2515253 20.5565048,91.1611484 23.2007723,93.3768964 C25.8406154,95.5941186 29.7723595,95.3656149 32.1482183,92.8609205 Z" id="Path"></path>
          <path d="M93.0297852,93.0599398 C94.2936654,90.8663051 94.640237,88.2480959 93.9544677,85.8126896 C97.5293167,86.1812439 101.145459,84.4475648 103.040542,81.1689065 C104.932676,77.8902482 104.620024,73.9010173 102.521422,70.9805937 C106.007785,70.0931152 108.812803,67.2375571 109.470551,63.5092627 C110.129775,59.779494 108.469181,56.1367041 105.497514,54.1126043 C108.470655,52.0885046 110.129775,48.4457147 109.470551,44.715946 C108.812803,40.9861773 106.007785,38.1306193 102.521422,37.2431407 C104.621499,34.3241913 104.93415,30.3334863 103.040542,27.054828 C101.146934,23.7732212 97.5293167,22.0469133 93.9544677,22.4110448 C94.9292924,18.9495836 93.8586075,15.0945065 90.95478,12.6591002 C88.0524273,10.2281166 84.0690662,9.83892337 80.8275158,11.400119 C80.5591072,7.8133494 78.2348654,4.55680434 74.6732893,3.26244193 C71.1117132,1.96513108 67.2374853,2.96759855 64.7259474,5.5415812 C63.2482251,2.26439711 59.9491586,0 56.1589927,0 C52.3703017,0 49.0712351,2.26439711 47.5905633,5.54305542 C45.0805002,2.96759855 41.2047975,1.9666053 37.6432214,3.26391614 C34.0816453,4.55975277 31.754454,7.81629783 31.4889949,11.4015933 C28.2459697,9.84039759 24.2640834,10.2266424 21.3617307,12.6605745 C18.459378,15.0959807 17.3872183,18.9510578 18.3605682,22.4110448 C14.7901435,22.0572328 11.1710513,23.7761696 9.27449359,27.0563022 C7.38088544,30.3364347 7.69501202,34.3256655 9.79508836,37.2460892 C6.30872568,38.1335677 3.50370799,40.9891258 2.84595936,44.7174202 C2.18673596,48.4471889 3.84585526,52.0870304 6.81752226,54.1140786 C3.84438048,56.1396525 2.18673596,59.7809682 2.84595936,63.5107369 C3.50370799,67.2390313 6.30872568,70.0945894 9.79361358,70.982068 C7.69501202,73.9024916 7.38236021,77.8917224 9.27449359,81.1703807 C11.1710513,84.4519875 14.773921,86.1827181 18.362043,85.8141639 C17.6762737,88.2495701 18.0228453,90.8692535 19.2867255,93.061414 L0.107306441,112.233604 L15.6882801,117.105891 L20.5624039,132.679518 L48.7231887,104.529347 C50.447198,106.773105 53.1386582,108.225209 56.1604675,108.225209 C59.180802,108.225209 61.8722622,106.773105 63.5962715,104.529347 L91.7555816,132.679518 L96.6297054,117.104417 L112.210679,112.23213 L93.0297852,93.0599398 Z M100.562924,79.7403904 C98.8389149,82.7256795 95.0649715,83.8578781 91.9782723,82.3158472 L91.4385054,82.0711272 C94.1579863,78.6494699 96.3878427,74.8268255 98.0292647,70.7049152 L98.5144649,71.0277687 C101.385847,72.9324569 102.283984,76.7595239 100.562924,79.7403904 Z M106.65521,63.0124516 C106.056453,66.4031504 102.893065,68.7604231 99.4833906,68.3697557 L98.8979058,68.3299518 C100.262071,64.2434227 101.052549,59.9003798 101.179379,55.3907504 L101.739793,55.5249041 C105.093426,56.3283523 107.252493,59.6188043 106.65521,63.0124516 Z M106.65521,45.2127571 C107.252493,48.6049301 105.093426,51.8953822 101.738318,52.7003046 L101.177904,52.8403552 C101.052549,48.3380969 100.26502,44.0009508 98.9052797,39.9203186 L99.4819158,39.855453 C102.89159,39.4706824 106.056453,41.8220583 106.65521,45.2127571 Z M91.979747,25.9078872 C95.0634968,24.3688048 98.8389149,25.4965807 100.564399,28.4833441 C102.286933,31.4642106 101.385847,35.2912776 98.5174144,37.1959658 L98.0395881,37.543881 C96.4011156,33.4190222 94.172734,29.5949036 91.4532532,26.1702978 L91.979747,25.9078872 Z M80.1697672,15.3613398 C82.545626,12.8566453 86.4758953,12.6340386 89.118688,14.8483123 C91.7614807,17.0670087 92.2216098,20.9751576 90.1643018,23.7481595 L89.8162555,24.2184347 C86.9021046,20.944199 83.5219256,18.0945378 79.7745281,15.7800173 L80.1697672,15.3613398 Z M65.461859,9.49100819 C66.8378219,6.32586458 70.4554394,4.76909157 73.695515,5.94699084 C76.9355906,7.12489012 78.7053179,10.6408973 77.7231193,13.9505142 L77.562369,14.493026 C73.7515564,12.4276482 69.6118694,10.8944627 65.2421178,9.99666458 L65.461859,9.49100819 Z M49.6345983,9.00156819 C49.8425412,5.55484916 52.7094994,2.85703229 56.1589927,2.85703229 C59.6084861,2.85703229 62.4739695,5.55484916 62.6819124,9.00009398 L62.736479,9.5617706 C60.5877352,9.24628819 58.3932734,9.07675325 56.157518,9.07675325 C53.9306112,9.07675325 51.7420485,9.24481398 49.5992037,9.55882217 L49.6345983,9.00156819 Z M38.6209957,5.94699084 C41.8684452,4.76761735 45.4786888,6.32439036 46.853177,9.49100819 L47.0935649,9.99224193 C42.7164395,10.89004 38.5708534,12.4232255 34.7541417,14.493026 L34.5933914,13.9505142 C33.609718,10.6423716 35.3794453,7.12783855 38.6209957,5.94699084 Z M23.1992975,14.8483123 C25.8420902,12.6340386 29.7708847,12.8581195 32.1482183,15.362814 L32.5434574,15.7800173 C28.7960599,18.0945378 25.4158809,20.944199 22.50173,24.2184347 L22.1536836,23.7481595 C20.0978505,20.9736834 20.5565048,17.0655345 23.1992975,14.8483123 Z M11.7535865,28.4833441 C13.4805454,25.4980549 17.2471148,24.362908 20.3382384,25.9078872 L20.8780053,26.1526072 C18.1585244,29.5742646 15.928668,33.3954347 14.2887208,37.5173451 L13.8020458,37.1944916 C10.9306633,35.2912776 10.031052,31.4656848 11.7535865,28.4833441 Z M5.66277523,45.2127571 C6.26153295,41.8220583 9.42049609,39.4721566 12.8345949,39.855453 L13.4141806,39.9114733 C12.0529654,43.9935798 11.263962,48.3322 11.1386063,52.8359325 L10.5781927,52.7017788 C7.22308476,51.8953822 5.06401751,48.6049301 5.66277523,45.2127571 Z M5.66277523,63.0124516 C5.06401751,59.6188043 7.22308476,56.3283523 10.5781927,55.5249041 L11.1371315,55.3671629 C11.2610124,59.8753181 12.0500158,64.218361 13.411231,68.3048901 L12.8345949,68.3697557 C9.41902132,68.7589489 6.26153295,66.4031504 5.66277523,63.0124516 Z M11.7535865,79.7403904 C10.0325268,76.7609981 10.9336129,72.9339311 13.8020458,71.0277687 L14.2783974,70.6813277 C15.9168699,74.8047123 18.1452514,78.6288308 20.8632575,82.0534366 L20.3367637,82.3158472 C17.2515392,83.8549296 13.4775958,82.7271537 11.7535865,79.7403904 Z M21.8793759,127.322214 L17.9682787,114.825278 L5.46663046,110.915654 L21.0903725,95.297801 C21.184758,95.3833055 21.2643957,95.4806039 21.3632055,95.56316 C24.2640834,98.0000405 28.2489192,98.3848111 31.4904697,96.8221412 C31.7588783,100.407437 34.0831201,103.665456 37.6446962,104.961293 C39.9055227,105.78538 42.2931797,105.674813 44.3799831,104.828613 L21.8793759,127.322214 Z M22.1536836,84.4770492 L22.50173,84.0052998 C25.4158809,87.2795354 28.7960599,90.1291966 32.5434574,92.4437171 L32.1482183,92.8594463 C29.7708847,95.3656149 25.8406154,95.5926443 23.1992975,93.373948 C20.5565048,91.1596742 20.0978505,87.2515253 22.1536836,84.4770492 Z M46.8546517,98.7342005 C45.4816383,101.899344 41.8640209,103.457591 38.6224705,102.278218 C35.3809201,101.098844 33.6111928,97.5813629 34.5948662,94.2746945 L34.7349696,93.7218631 C38.5516814,95.7931378 42.6972675,97.3292718 47.0743929,98.2285441 L46.8546517,98.7342005 Z M62.6819124,99.2251147 C62.4739695,102.668885 59.6084861,105.368176 56.1589927,105.368176 C52.7094994,105.368176 49.8425412,102.67036 49.6345983,99.2236405 L49.5800317,98.6634381 C51.7287755,98.9789205 53.9247121,99.1484554 56.1589927,99.1484554 C58.3858995,99.1484554 60.5744622,98.9803947 62.7158322,98.6663865 L62.6819124,99.2251147 Z M56.1589927,96.2914231 C32.8929785,96.2914231 13.9642708,77.3698496 13.9642708,54.1126043 C13.9642708,30.855359 32.8929785,11.9337855 56.1589927,11.9337855 C79.425007,11.9337855 98.3522399,30.8538848 98.3522399,54.1111301 C98.3522399,77.3683754 79.425007,96.2914231 56.1589927,96.2914231 Z M89.118688,93.3754222 C86.4773701,95.5955928 82.5485756,95.3670892 80.1697672,92.8623947 L79.7553561,92.4569851 C83.5086526,90.1395161 86.8962055,87.2869065 89.8147807,84.006774 L90.1628271,84.4770492 C92.220135,87.2500511 91.7614807,91.1582 89.118688,93.3754222 Z M65.461859,98.7327263 L65.2229458,98.2329667 C69.6000712,97.3351687 73.747132,95.8005089 77.5638438,93.7321827 L77.724594,94.2732202 C78.7067927,97.5828371 76.9370654,101.09737 73.6969898,102.278218 C70.4569141,103.454643 66.8378219,101.899344 65.461859,98.7327263 Z M94.348232,114.825278 L90.4371348,127.322214 L67.9321033,104.825665 C70.0203814,105.674813 72.4095132,105.786854 74.6718145,104.961293 C78.2333906,103.665456 80.5591072,100.408911 80.826041,96.8236154 C84.0646419,98.3848111 88.0509525,98.0000405 90.9533052,95.56316 C91.052115,95.4806039 91.1317527,95.3833055 91.2261382,95.297801 L106.84988,110.915654 L94.348232,114.825278 Z" id="Shape" fill="#000000" fill-rule="nonzero"></path>
          <path d="M56.1589927,15.6679769 C34.953236,15.6679769 17.7013448,32.91484 17.7013448,54.1111301 C17.7013448,75.3074202 34.953236,92.5557576 56.1589927,92.5557576 C77.3647495,92.5557576 94.6166406,75.3088945 94.6166406,54.1126043 C94.6166406,32.9163142 77.3647495,15.6679769 56.1589927,15.6679769 Z M56.1589927,89.6972511 C36.529768,89.6972511 20.5594543,73.7329566 20.5594543,54.1111301 C20.5594543,34.4893036 36.529768,18.5250092 56.1589927,18.5250092 C75.7882175,18.5250092 91.7585311,34.4893036 91.7585311,54.1111301 C91.7585311,73.7329566 75.7882175,89.6972511 56.1589927,89.6972511 Z" id="Shape" fill="#000000" fill-rule="nonzero"></path>
        </g>
        <g id="noun-star-1594233" transform="translate(55.787234, 53.804545) scale(-1, 1) translate(-55.787234, -53.804545) translate(35.170213, 33.854545)" fill="#000000" fill-rule="nonzero">
          <path d="M7.87522589,39.9 L10.308674,25.4642753 L0,15.2404935 L14.2459603,13.1343227 L20.6171519,0 L26.9880823,13.1343227 L41.2340426,15.2404935 L30.9253686,25.4642753 L33.3588167,39.9 L20.6166946,33.0839239 L7.87522589,39.9 Z M20.6173479,29.4801439 L29.1948441,34.0680842 L27.5568232,24.3507724 L34.4959065,17.4688951 L24.9058347,16.051045 L20.6172173,7.20975349 L16.3283385,16.051045 L6.73826669,17.4688951 L13.67735,24.3507724 L12.0393292,34.0680842 L20.6173479,29.4801439 Z" id="Shape"></path>
        </g>
      </g>
    </g>
  </g>
</svg>
