<?xml version="1.0" encoding="UTF-8"?>
<svg xmlns="http://www.w3.org/2000/svg" xmlns:xlink="http://www.w3.org/1999/xlink" width="86" height="86" viewBox="0 0 147 148" version="1.1">
  <title>Group 4</title>
  <g id="Tex-Tech" stroke="none" stroke-width="1" fill="none" fill-rule="evenodd">
    <g id="New-CTA-Desktop-Copy-4" transform="translate(-1086.000000, -927.000000)" fill="#000000" fill-rule="nonzero">
      <g id="noun-solutions-2863437" transform="translate(1086.000000, 927.000000)">
        <path d="M41.0739181,89.2352941 C36.4587765,89.2352941 32.3294393,86.3542886 30.7505103,82.0951785 C30.386157,81.2183304 30.2647059,80.2162851 30.2647059,79.3393702 L30.2647059,73.0761695 C30.2647059,72.3245855 30.7505103,71.8235294 31.4792168,71.8235294 L50.667842,71.8235294 C51.3965486,71.8235294 51.8823529,72.3245855 51.8823529,73.0761695 L51.8823529,79.3393702 C51.8823529,80.3414823 51.7609018,81.2182636 51.3965486,82.0951785 C49.8176196,86.354155 45.6884119,89.2352941 41.0731408,89.2352941 L41.0739181,89.2352941 Z M32.6937278,74.2036125 L32.6937278,79.214173 C32.6937278,79.8404931 32.8151789,80.4668132 33.0580811,81.0930664 C34.272592,84.475128 37.5518363,86.7300138 41.0738533,86.7300138 C44.5958702,86.7300138 47.8751146,84.4752616 49.0896255,81.0930664 C49.3325277,80.4667464 49.4539788,79.8404263 49.4539788,79.214173 L49.4539788,74.2036125 L32.6937278,74.2036125 Z" id="Shape"></path>
        <path d="M50.667842,82.7058824 L31.4792168,82.7058824 C30.7505103,82.7058824 30.2647059,82.2705882 30.2647059,81.6176471 C30.2647059,80.9647059 30.7505103,80.5294118 31.4792168,80.5294118 L50.667842,80.5294118 C51.3965486,80.5294118 51.8823529,80.9647059 51.8823529,81.6176471 C51.8823529,82.2705882 51.3965486,82.7058824 50.667842,82.7058824 Z" id="Path"></path>
        <path d="M39.9926471,8.70588235 C39.3441176,8.70588235 38.9117647,8.24156533 38.9117647,7.54508978 L38.9117647,1.16079257 C38.9117647,0.464317027 39.3441176,0 39.9926471,0 C40.6411765,0 41.0735294,0.464317027 41.0735294,1.16079257 L41.0735294,7.54508978 C41.0735294,8.24156533 40.5330882,8.70588235 39.9926471,8.70588235 Z" id="Path"></path>
        <path d="M18.0147059,19.5882353 C17.5823529,19.5882353 17.2941176,19.4775663 17.0058824,19.2562283 L11.2411765,14.9401965 C10.6647059,14.4975205 10.6647059,13.8335065 11.2411765,13.3908305 C11.8176471,12.9481545 12.6823529,12.9481545 13.2588235,13.3908305 L19.0235294,17.7068624 C19.6,18.1495383 19.6,18.8135523 19.0235294,19.2562283 C18.7352941,19.4775663 18.4470588,19.5882353 18.0147059,19.5882353 Z" id="Path"></path>
        <path d="M7.50928793,41.3529412 L1.1377709,41.3529412 C0.455108359,41.3529412 0,40.9176471 0,40.2647059 C0,39.6117647 0.455108359,39.1764706 1.1377709,39.1764706 L7.50928793,39.1764706 C8.19195046,39.1764706 8.64705882,39.6117647 8.64705882,40.2647059 C8.64705882,40.9176471 8.19195046,41.3529412 7.50928793,41.3529412 Z" id="Path"></path>
        <path d="M81.0092879,41.3529412 L74.6377709,41.3529412 C73.9551084,41.3529412 73.5,40.9176471 73.5,40.2647059 C73.5,39.6117647 73.9551084,39.1764706 74.6377709,39.1764706 L81.0092879,39.1764706 C81.6919505,39.1764706 82.1470588,39.6117647 82.1470588,40.2647059 C82.1470588,40.9176471 81.6919505,41.3529412 81.0092879,41.3529412 Z" id="Path"></path>
        <path d="M64.1323529,19.5882353 C63.7,19.5882353 63.4117647,19.4775663 63.1235294,19.2562283 C62.5470588,18.8135523 62.5470588,18.1495383 63.1235294,17.7068624 L68.8882353,13.3908305 C69.4647059,12.9481545 70.3294118,12.9481545 70.9058824,13.3908305 C71.4823529,13.8335065 71.4823529,14.4975205 70.9058824,14.9401965 L65.1411765,19.2562283 C64.8529412,19.4775663 64.4205882,19.5882353 64.1323529,19.5882353 Z" id="Path"></path>
        <path d="M50.5603137,74 L31.5854641,74 C30.8648758,74 30.3844837,73.5279994 30.3844837,72.8199985 L30.3844837,62.6719852 C21.1368706,58.65998 15.1323529,49.8096538 15.1323529,40.0159557 C15.1323529,26.3279379 26.7819268,15.2352941 41.0735294,15.2352941 C55.365132,15.2352941 67.0147059,26.3273086 67.0147059,40.0159557 C67.0147059,49.8099056 61.0098039,58.6593507 51.7625752,62.6719852 L51.7625752,72.8199985 C51.7625752,73.5279994 51.162085,74 50.5615948,74 L50.5603137,74 Z M32.7858039,71.6399969 L49.3599739,71.6399969 L49.3599739,61.8460471 C49.3599739,61.3740465 49.6001699,60.9020459 50.0805621,60.7840457 C58.847783,57.2440411 64.6127451,49.1020934 64.6127451,40.0160187 C64.6127451,27.6259396 54.0441176,17.5966188 41.0735294,17.5966188 C28.1029412,17.5966188 17.5343137,27.6266948 17.5343137,40.0160187 C17.5343137,49.1020934 23.1788575,57.2446704 32.0664967,60.7840457 C32.5468889,61.020046 32.787085,61.3740465 32.787085,61.8460471 L32.7858039,71.6399969 Z" id="Shape"></path>
        <path d="M27.1257051,41.3529412 C26.4149879,41.3529412 25.9411765,40.8624689 25.9411765,40.1267606 C25.9411765,31.1755767 33.1668641,23.9411765 42.0507655,23.9411765 C42.7614827,23.9411765 43.2352941,24.4316487 43.2352941,25.1673571 C43.2352941,25.9030655 42.7614827,26.3935377 42.0507655,26.3935377 C34.4697824,26.3935377 28.3102337,32.5244408 28.3102337,40.1267606 C28.3102337,40.8624689 27.8364222,41.3529412 27.1257051,41.3529412 Z" id="Path"></path>
        <path d="M50.667842,67.4705882 L31.4792168,67.4705882 C30.7505103,67.4705882 30.2647059,67.0352941 30.2647059,66.3823529 C30.2647059,65.7294118 30.7505103,65.2941176 31.4792168,65.2941176 L50.667842,65.2941176 C51.3965486,65.2941176 51.8823529,65.7294118 51.8823529,66.3823529 C51.8823529,67.0352941 51.3965486,67.4705882 50.667842,67.4705882 Z" id="Path"></path>
        <path d="M40.8881141,67.4705882 C40.1562999,67.4705882 39.6684238,67.0108243 39.6684238,66.3213622 L39.6684238,49.3146304 L35.8874488,44.4883957 C34.0579783,42.1901887 34.1798823,38.9726989 36.1313868,36.9043126 C37.3510772,35.64036 39.0586436,34.8359263 40.8881141,34.8359263 C42.7175845,34.7210159 44.4252811,35.410478 45.7668754,36.6744919 C47.962318,38.8577273 48.2062561,42.3051603 46.1327825,44.6033673 L42.1077394,49.314753 L42.1077394,66.3214847 C42.1077394,66.8960365 41.6198632,67.4705882 40.888049,67.4705882 L40.8881141,67.4705882 Z M41.0100831,37.0189165 C39.7903928,37.0189165 38.6927365,37.4785579 37.9607922,38.2828691 C36.7411019,39.6617933 36.6191979,41.6153305 37.7168542,42.9942547 L40.888049,46.9012066 L44.1811479,42.9942547 C45.4008382,41.5003589 45.2788692,39.4320952 43.9372098,38.053171 C43.2053956,37.4786192 42.2296434,37.0189165 41.009953,37.0189165 L41.0100831,37.0189165 Z" id="Shape"></path>
        <path d="M114.640781,148 L105.859219,148 C105.257746,148 104.776568,147.523556 104.656274,147.047111 L103.333099,139.066733 C100.566389,138.352067 98.0401409,137.399178 95.6342511,135.969846 L88.8977594,140.734288 C88.4165814,141.091622 87.8151089,140.972511 87.3338668,140.615177 L81.0785531,134.540576 C80.5973751,134.183243 80.5973751,133.468577 80.9582586,132.992069 L85.7700384,126.441024 C84.3265045,124.058802 83.2437899,121.557406 82.6423815,118.93709 L74.462356,117.626932 C73.8608835,117.507821 73.5,117.031376 73.5,116.435821 L73.5,107.859824 C73.5,107.264269 73.981178,106.787825 74.462356,106.668713 L82.6423815,105.358555 C83.3641485,102.738112 84.4467348,100.236843 85.7700384,97.8546215 L80.9582586,91.3035762 C80.5973751,90.827132 80.7176696,90.1124656 81.0785531,89.7550688 L87.3338668,83.6804679 C87.6947503,83.3231347 88.4165173,83.2040236 88.8977594,83.5613568 L95.6342511,88.2066249 C98.0401409,86.7772921 100.566389,85.705229 103.333099,85.1097372 L104.656274,77.1293591 C104.776568,76.5338038 105.257746,76.1764706 105.859219,76.1764706 L114.640781,76.1764706 C115.242254,76.1764706 115.723432,76.6529149 115.843726,77.1293591 L117.166901,85.1097372 C119.933611,85.8244036 122.459859,86.7772921 124.865749,88.2066249 L131.602241,83.4421822 C132.083419,83.084849 132.684891,83.2039601 133.166133,83.5612933 L139.421447,89.6358942 C139.902625,89.9932274 139.902625,90.7078939 139.541741,91.1844016 L134.729962,97.7354469 C136.173496,100.117668 137.25621,102.619064 137.857618,105.239381 L146.037644,106.549539 C146.639117,106.66865 147,107.145094 147,107.74065 L147,116.316646 C147,116.912202 146.518822,117.388646 146.037644,117.507757 L137.857618,118.817915 C137.135851,121.438359 136.053265,123.939628 134.729962,126.321849 L139.541741,132.872894 C139.902625,133.349339 139.78233,134.064005 139.421447,134.421402 L133.166133,140.496003 C132.80525,140.853336 132.083483,140.972447 131.602241,140.615114 L124.865749,135.969846 C122.459859,137.399178 119.933611,138.471242 117.166901,139.066733 L115.843726,147.047111 C115.723432,147.523556 115.242254,148 114.640781,148 Z M106.821575,145.617779 L113.558067,145.617779 L114.881242,137.875496 C115.001536,137.399051 115.36242,137.041718 115.843598,136.922607 C118.851024,136.207941 121.617733,135.136005 124.264212,133.468323 C124.625096,133.2301 125.226568,133.2301 125.587388,133.468323 L132.08329,137.994543 L136.89507,133.349275 L132.203649,126.917277 C131.96306,126.559944 131.842765,125.964389 132.203649,125.607119 C133.887772,123.105723 134.970358,120.366232 135.692253,117.388392 C135.812548,116.911948 136.173431,116.554614 136.654609,116.435503 L144.594046,115.125345 L144.594046,108.693348 L136.654609,107.383189 C136.173431,107.264078 135.812548,106.906745 135.692253,106.430301 C134.970486,103.571635 133.8879,100.712969 132.203649,98.2115735 C131.96306,97.8542403 131.96306,97.258685 132.203649,96.9014153 L136.89507,90.5884652 L132.08329,85.943197 L125.467157,90.4694176 C125.106274,90.7076397 124.504801,90.7076397 124.143982,90.4694176 C121.497503,88.9209102 118.730666,87.7299266 115.723367,87.0151331 C115.242189,86.896022 114.881306,86.5386888 114.761011,86.0622446 L113.437836,78.3199616 L106.701345,78.3199616 L105.4984,86.0622446 C105.378105,86.5386888 105.017222,86.896022 104.536044,87.0151331 C101.528617,87.7297995 98.7619079,88.8017356 96.115429,90.4694176 C95.7545455,90.7076397 95.1530731,90.7076397 94.7922538,90.4694176 L88.2963511,85.943197 L83.4845713,90.5884652 L88.1759924,97.0204628 C88.4165814,97.377796 88.5368759,97.9733514 88.1759924,98.3306211 C86.4918695,100.832017 85.4092832,103.571508 84.6873879,106.549348 C84.5670934,107.025793 84.20621,107.383126 83.725032,107.502237 L75.7855954,108.693348 L75.7855954,115.244393 L83.725032,116.554551 C84.20621,116.673662 84.5670934,117.030995 84.6873879,117.50744 C85.4091549,120.366105 86.4917412,123.224771 88.1759924,125.726167 C88.4165814,126.0835 88.4165814,126.679055 88.1759924,127.036325 L83.4845713,133.349275 L88.2963511,137.994543 L94.9124841,133.468323 C95.2733676,133.2301 95.87484,133.2301 96.2356594,133.468323 C98.8821382,135.01683 101.648976,136.207814 104.656274,136.922607 C105.137452,137.041718 105.498335,137.399051 105.61863,137.875496 L106.821575,145.617779 Z" id="Shape"></path>
        <polygon id="Path" points="110.25 84.8823529 112.411765 84.8823529 112.411765 87.0588235 110.25 87.0588235"></polygon>
        <polygon id="Path" points="90.7941176 94.7207256 91.933833 93.5882353 92.9558824 94.6322156 91.816167 95.7647059"></polygon>
        <polygon id="Path" points="84.3088235 111 86.4705882 111 86.4705882 113.176471 84.3088235 113.176471"></polygon>
        <polygon id="Path" points="90.7941176 129.455269 91.8164774 128.411765 92.9558824 129.544731 91.9335226 130.588235"></polygon>
        <polygon id="Path" points="110.25 137.117647 112.411765 137.117647 112.411765 139.294118 110.25 139.294118"></polygon>
        <polygon id="Path" points="127.544118 129.544255 128.683833 128.411765 129.705882 129.455745 128.566167 130.588235"></polygon>
        <polygon id="Path" points="136.191176 111 138.352941 111 138.352941 113.176471 136.191176 113.176471"></polygon>
        <polygon id="Path" points="127.544118 92.455745 128.566167 91.4117647 129.705882 92.544255 128.683833 93.5882353"></polygon>
        <path d="M111.330882,128.411765 C102.432002,128.411765 95.1176471,121.087892 95.1176471,112.026003 C95.1176471,103.088314 102.431742,95.7647059 111.330882,95.7647059 C120.230023,95.7647059 127.544118,103.088579 127.544118,112.026003 C127.544118,121.087892 120.351989,128.411765 111.330882,128.411765 L111.330882,128.411765 Z M111.330882,98.2473971 C103.772984,98.2473971 97.5556787,104.454125 97.5556787,112.026003 C97.5556787,119.59788 103.772594,125.929073 111.330882,125.929073 C118.88917,125.929073 125.106086,119.722345 125.106086,112.150468 C125.106086,104.578591 119.011007,98.2473971 111.330882,98.2473971 Z" id="Shape"></path>
        <path d="M110.144029,117.529412 C110.034616,117.529412 110.034616,117.529412 110.144029,117.529412 C109.815788,117.529412 109.487548,117.402805 109.378134,117.149727 L106.205081,112.973873 C105.767427,112.467717 105.87684,111.708483 106.314495,111.202327 C106.752149,110.696171 107.408631,110.82271 107.846285,111.328866 L110.253384,114.492409 L117.037028,107.026676 C117.474682,106.52052 118.131164,106.52052 118.568818,107.026676 C119.006472,107.532832 119.006472,108.292066 118.568818,108.798222 L110.800511,117.149795 C110.691097,117.402873 110.362856,117.529412 110.144029,117.529412 L110.144029,117.529412 Z" id="Path"></path>
        <path d="M70.1454732,124.058194 L40.103891,124.058194 C39.3886152,124.058194 38.9117647,123.585781 38.9117647,122.877163 L38.9117647,94.7692658 C38.9117647,94.0606475 39.3886152,93.5882353 40.103891,93.5882353 C40.8191668,93.5882353 41.2960173,94.0606475 41.2960173,94.7692658 L41.2960173,121.696762 L70.146109,121.696762 C70.8613848,121.696762 71.3382353,122.169175 71.3382353,122.877793 C71.3382353,123.586411 70.8613848,124.058824 70.146109,124.058824 L70.1454732,124.058194 Z" id="Path"></path>
      </g>
    </g>
  </g>
</svg>
